<?xml version="1.0" standalone="yes"?>

<svg width="116mm" height="29mm" viewBox="0 0 116 29" version="1.1"
xmlns="http://www.w3.org/2000/svg" style="stroke-linecap:round">
  <ellipse cx="14.116" cy="14.1268" rx="2.52825" ry="2.52825" style="stroke:rgb(0,0,0);stroke-width:0.13;fill:none;"/>
  <ellipse cx="14.1076" cy="21.932" rx="1.51511" ry="1.51511" style="stroke:rgb(0,0,0);stroke-width:0.13;fill:none;"/>
  <ellipse cx="6.36452" cy="14.1167" rx="1.51511" ry="1.51511" style="stroke:rgb(0,0,0);stroke-width:0.13;fill:none;"/>
  <ellipse cx="21.9721" cy="14.1099" rx="1.51511" ry="1.51511" style="stroke:rgb(0,0,0);stroke-width:0.13;fill:none;"/>
  <ellipse cx="101.826" cy="14.1311" rx="2.52825" ry="2.52825" style="stroke:rgb(0,0,0);stroke-width:0.13;fill:none;"/>
  <ellipse cx="101.832" cy="6.30666" rx="1.51511" ry="1.51511" style="stroke:rgb(0,0,0);stroke-width:0.13;fill:none;"/>
  <ellipse cx="101.818" cy="21.9363" rx="1.51511" ry="1.51511" style="stroke:rgb(0,0,0);stroke-width:0.13;fill:none;"/>
  <ellipse cx="94.0747" cy="14.1209" rx="1.51511" ry="1.51511" style="stroke:rgb(0,0,0);stroke-width:0.13;fill:none;"/>
  <ellipse cx="109.682" cy="14.1142" rx="1.51511" ry="1.51511" style="stroke:rgb(0,0,0);stroke-width:0.13;fill:none;"/>
  <ellipse cx="14.1216" cy="6.30238" rx="1.51511" ry="1.51511" style="stroke:rgb(0,0,0);stroke-width:0.13;fill:none;"/>
  <path d="M16.6329,1.16496 A190.458,190.458 0 0,0 99.1624,1.26579 " style="stroke:rgb(0,0,0);stroke-width:0.13;fill:none" />
  <path d="M16.6255,1.16619 A13.1523,13.1523 0 1,0 17.4772,26.8168 " style="stroke:rgb(0,0,0);stroke-width:0.13;fill:none" />
  <path d="M98.8242,26.9073 A187.861,187.861 0 0,0 17.4167,26.8228 " style="stroke:rgb(0,0,0);stroke-width:0.13;fill:none" />
  <path d="M98.8261,26.9006 A13.1386,13.1386 0 1,0 99.1628,1.26659 " style="stroke:rgb(0,0,0);stroke-width:0.13;fill:none" />
</svg>
